<svg width="136" height="26" viewBox="0 0 136 26" fill="none" xmlns="http://www.w3.org/2000/svg">
<path d="M9.13301 14.2891C9.01582 15.2617 8.74922 16.1377 8.3332 16.917C7.91719 17.6963 7.41328 18.2734 6.82148 18.6484C6.22969 19.0234 5.57344 19.2021 4.85273 19.1846C3.7043 19.1611 2.85176 18.7305 2.29512 17.8926L1.96992 19H0.502149L2.84883 5.5H4.43965L3.48164 10.5449C4.24336 9.70117 5.16914 9.29102 6.25898 9.31445C7.17305 9.33789 7.88496 9.6748 8.39473 10.3252C8.90449 10.9756 9.17402 11.8721 9.20332 13.0146C9.20918 13.3896 9.1916 13.7529 9.15059 14.1045L9.13301 14.2891ZM7.62129 13.3662C7.63887 12.5107 7.49531 11.8574 7.19063 11.4062C6.88594 10.9492 6.42012 10.709 5.79316 10.6855C4.80293 10.6621 3.96504 11.1602 3.27949 12.1797L2.56758 16.3193C2.91914 17.2861 3.57832 17.7812 4.54512 17.8047C5.16621 17.8281 5.7082 17.6436 6.17109 17.251C6.63984 16.8584 6.99434 16.3105 7.23457 15.6074C7.4748 14.8984 7.60371 14.1514 7.62129 13.3662ZM14.1033 16.6006L17.4871 9.49023H19.2449L13.6023 20.582C12.8172 22.123 11.8094 22.8848 10.5789 22.8672C10.3621 22.8613 10.0428 22.8086 9.6209 22.709L9.76152 21.3906L10.1746 21.4346C10.6785 21.458 11.1121 21.3438 11.4754 21.0918C11.8445 20.8457 12.1697 20.4443 12.451 19.8877L13.0223 18.7979L11.3787 9.49023H13.0398L14.1033 16.6006Z" fill="#00C08B"/>
<path d="M36.943 20H35.0582V13.4277H27.8902V20H26.0152V5.78125H27.8902V11.8945H35.0582V5.78125H36.943V20ZM46.9133 18.9551C46.2102 19.7819 45.1783 20.1953 43.8176 20.1953C42.6913 20.1953 41.8319 19.8698 41.2395 19.2188C40.6535 18.5612 40.3573 17.5911 40.3508 16.3086V9.43359H42.1574V16.2598C42.1574 17.8613 42.8085 18.6621 44.1105 18.6621C45.4908 18.6621 46.4087 18.1478 46.8645 17.1191V9.43359H48.6711V20H46.9523L46.9133 18.9551ZM53.5242 9.43359L53.573 10.6055C54.3478 9.69401 55.3927 9.23828 56.7078 9.23828C58.1857 9.23828 59.1915 9.80469 59.7254 10.9375C60.077 10.4297 60.5327 10.0195 61.0926 9.70703C61.659 9.39453 62.3263 9.23828 63.0945 9.23828C65.4122 9.23828 66.5906 10.4655 66.6297 12.9199V20H64.823V13.0273C64.823 12.2721 64.6505 11.709 64.3055 11.3379C63.9604 10.9603 63.381 10.7715 62.5672 10.7715C61.8966 10.7715 61.34 10.9733 60.8973 11.377C60.4546 11.7741 60.1974 12.3112 60.1258 12.9883V20H58.3094V13.0762C58.3094 11.5397 57.5574 10.7715 56.0535 10.7715C54.8686 10.7715 54.0581 11.276 53.6219 12.2852V20H51.8152V9.43359H53.5242ZM76.2875 20C76.1833 19.7917 76.0987 19.4206 76.0336 18.8867C75.1938 19.7591 74.1911 20.1953 73.0258 20.1953C71.9841 20.1953 71.128 19.9023 70.4574 19.3164C69.7934 18.724 69.4613 17.9753 69.4613 17.0703C69.4613 15.9701 69.878 15.1172 70.7113 14.5117C71.5512 13.8997 72.7296 13.5938 74.2465 13.5938H76.0043V12.7637C76.0043 12.1322 75.8155 11.6309 75.4379 11.2598C75.0603 10.8822 74.5036 10.6934 73.768 10.6934C73.1234 10.6934 72.5831 10.8561 72.1469 11.1816C71.7107 11.5072 71.4926 11.901 71.4926 12.3633H69.6762C69.6762 11.8359 69.8617 11.3281 70.2328 10.8398C70.6104 10.3451 71.1182 9.95443 71.7563 9.66797C72.4008 9.38151 73.1072 9.23828 73.8754 9.23828C75.0928 9.23828 76.0466 9.54427 76.7367 10.1562C77.4268 10.7617 77.7849 11.5983 77.8109 12.666V17.5293C77.8109 18.4993 77.9346 19.2708 78.182 19.8438V20H76.2875ZM73.2895 18.623C73.8559 18.623 74.393 18.4766 74.9008 18.1836C75.4086 17.8906 75.7764 17.5098 76.0043 17.041V14.873H74.5883C72.3747 14.873 71.268 15.5208 71.268 16.8164C71.268 17.3828 71.4568 17.8255 71.8344 18.1445C72.212 18.4635 72.697 18.623 73.2895 18.623ZM82.752 9.43359L82.8105 10.7617C83.6178 9.74609 84.6725 9.23828 85.9746 9.23828C88.2077 9.23828 89.334 10.498 89.3535 13.0176V20H87.5469V13.0078C87.5404 12.2461 87.3646 11.6829 87.0195 11.3184C86.681 10.9538 86.1504 10.7715 85.4277 10.7715C84.8418 10.7715 84.3275 10.9277 83.8848 11.2402C83.4421 11.5527 83.097 11.9629 82.8496 12.4707V20H81.043V9.43359H82.752ZM95.4273 15.1074L94.2945 16.2891V20H92.4879V5H94.2945V14.0723L95.2613 12.9102L98.5523 9.43359H100.75L96.6383 13.8477L101.228 20H99.109L95.4273 15.1074ZM104.978 20H103.171V9.43359H104.978V20ZM103.025 6.63086C103.025 6.33789 103.113 6.09049 103.288 5.88867C103.471 5.68685 103.738 5.58594 104.089 5.58594C104.441 5.58594 104.708 5.68685 104.89 5.88867C105.072 6.09049 105.163 6.33789 105.163 6.63086C105.163 6.92383 105.072 7.16797 104.89 7.36328C104.708 7.55859 104.441 7.65625 104.089 7.65625C103.738 7.65625 103.471 7.55859 103.288 7.36328C103.113 7.16797 103.025 6.92383 103.025 6.63086ZM109.987 9.43359L110.046 10.7617C110.853 9.74609 111.908 9.23828 113.21 9.23828C115.443 9.23828 116.569 10.498 116.589 13.0176V20H114.782V13.0078C114.776 12.2461 114.6 11.6829 114.255 11.3184C113.916 10.9538 113.386 10.7715 112.663 10.7715C112.077 10.7715 111.563 10.9277 111.12 11.2402C110.677 11.5527 110.332 11.9629 110.085 12.4707V20H108.278V9.43359H109.987ZM119.274 14.6289C119.274 13.0078 119.658 11.7057 120.426 10.7227C121.194 9.73307 122.2 9.23828 123.444 9.23828C124.681 9.23828 125.661 9.66146 126.383 10.5078V5H128.19V20H126.53L126.442 18.8672C125.719 19.7526 124.713 20.1953 123.424 20.1953C122.2 20.1953 121.201 19.694 120.426 18.6914C119.658 17.6888 119.274 16.3802 119.274 14.7656V14.6289ZM121.08 14.834C121.08 16.0319 121.328 16.9694 121.823 17.6465C122.317 18.3236 123.001 18.6621 123.873 18.6621C125.019 18.6621 125.856 18.1478 126.383 17.1191V12.2656C125.843 11.2695 125.013 10.7715 123.893 10.7715C123.008 10.7715 122.317 11.1133 121.823 11.7969C121.328 12.4805 121.08 13.4928 121.08 14.834Z" fill="#00C08B"/>
</svg>
